<mxfile>
    <diagram id="YVSR95UpvwReCswUv3WG" name="Page-1">
        <mxGraphModel dx="1242" dy="1428" grid="1" gridSize="10" guides="1" tooltips="1" connect="1" arrows="1" fold="1" page="1" pageScale="1" pageWidth="850" pageHeight="1100" math="0" shadow="0">
            <root>
                <mxCell id="0"/>
                <mxCell id="1" parent="0"/>
                <mxCell id="zT0m9KXt71LDKq0_06r3-27" value="" style="shape=table;html=1;whiteSpace=wrap;startSize=0;container=1;collapsible=0;childLayout=tableLayout;" parent="1" vertex="1">
                    <mxGeometry x="20" y="-40" width="220" height="360" as="geometry"/>
                </mxCell>
                <mxCell id="zT0m9KXt71LDKq0_06r3-28" value="" style="shape=partialRectangle;html=1;whiteSpace=wrap;collapsible=0;dropTarget=0;pointerEvents=0;fillColor=none;top=0;left=0;bottom=0;right=0;points=[[0,0.5],[1,0.5]];portConstraint=eastwest;" parent="zT0m9KXt71LDKq0_06r3-27" vertex="1">
                    <mxGeometry width="220" height="40" as="geometry"/>
                </mxCell>
                <mxCell id="zT0m9KXt71LDKq0_06r3-29" value="&lt;font style=&quot;font-size: 12px&quot;&gt;&lt;u&gt;id&lt;/u&gt;&lt;/font&gt;" style="shape=partialRectangle;html=1;whiteSpace=wrap;connectable=0;overflow=hidden;fillColor=none;top=0;left=0;bottom=0;right=0;" parent="zT0m9KXt71LDKq0_06r3-28" vertex="1">
                    <mxGeometry width="110" height="40" as="geometry"/>
                </mxCell>
                <mxCell id="zT0m9KXt71LDKq0_06r3-30" value="int" style="shape=partialRectangle;html=1;whiteSpace=wrap;connectable=0;overflow=hidden;fillColor=none;top=0;left=0;bottom=0;right=0;" parent="zT0m9KXt71LDKq0_06r3-28" vertex="1">
                    <mxGeometry x="110" width="110" height="40" as="geometry"/>
                </mxCell>
                <mxCell id="zT0m9KXt71LDKq0_06r3-31" value="" style="shape=partialRectangle;html=1;whiteSpace=wrap;collapsible=0;dropTarget=0;pointerEvents=0;fillColor=none;top=0;left=0;bottom=0;right=0;points=[[0,0.5],[1,0.5]];portConstraint=eastwest;" parent="zT0m9KXt71LDKq0_06r3-27" vertex="1">
                    <mxGeometry y="40" width="220" height="40" as="geometry"/>
                </mxCell>
                <mxCell id="zT0m9KXt71LDKq0_06r3-32" value="deptid" style="shape=partialRectangle;html=1;whiteSpace=wrap;connectable=0;overflow=hidden;fillColor=none;top=0;left=0;bottom=0;right=0;" parent="zT0m9KXt71LDKq0_06r3-31" vertex="1">
                    <mxGeometry width="110" height="40" as="geometry"/>
                </mxCell>
                <mxCell id="zT0m9KXt71LDKq0_06r3-33" value="int" style="shape=partialRectangle;html=1;whiteSpace=wrap;connectable=0;overflow=hidden;fillColor=none;top=0;left=0;bottom=0;right=0;" parent="zT0m9KXt71LDKq0_06r3-31" vertex="1">
                    <mxGeometry x="110" width="110" height="40" as="geometry"/>
                </mxCell>
                <mxCell id="zT0m9KXt71LDKq0_06r3-34" value="" style="shape=partialRectangle;html=1;whiteSpace=wrap;collapsible=0;dropTarget=0;pointerEvents=0;fillColor=none;top=0;left=0;bottom=0;right=0;points=[[0,0.5],[1,0.5]];portConstraint=eastwest;" parent="zT0m9KXt71LDKq0_06r3-27" vertex="1">
                    <mxGeometry y="80" width="220" height="40" as="geometry"/>
                </mxCell>
                <mxCell id="zT0m9KXt71LDKq0_06r3-35" value="officeid" style="shape=partialRectangle;html=1;whiteSpace=wrap;connectable=0;overflow=hidden;fillColor=none;top=0;left=0;bottom=0;right=0;" parent="zT0m9KXt71LDKq0_06r3-34" vertex="1">
                    <mxGeometry width="110" height="40" as="geometry"/>
                </mxCell>
                <mxCell id="zT0m9KXt71LDKq0_06r3-36" value="id" style="shape=partialRectangle;html=1;whiteSpace=wrap;connectable=0;overflow=hidden;fillColor=none;top=0;left=0;bottom=0;right=0;" parent="zT0m9KXt71LDKq0_06r3-34" vertex="1">
                    <mxGeometry x="110" width="110" height="40" as="geometry"/>
                </mxCell>
                <mxCell id="zT0m9KXt71LDKq0_06r3-55" value="" style="shape=partialRectangle;html=1;whiteSpace=wrap;collapsible=0;dropTarget=0;pointerEvents=0;fillColor=none;top=0;left=0;bottom=0;right=0;points=[[0,0.5],[1,0.5]];portConstraint=eastwest;" parent="zT0m9KXt71LDKq0_06r3-27" vertex="1">
                    <mxGeometry y="120" width="220" height="40" as="geometry"/>
                </mxCell>
                <mxCell id="zT0m9KXt71LDKq0_06r3-56" value="name" style="shape=partialRectangle;html=1;whiteSpace=wrap;connectable=0;overflow=hidden;fillColor=none;top=0;left=0;bottom=0;right=0;" parent="zT0m9KXt71LDKq0_06r3-55" vertex="1">
                    <mxGeometry width="110" height="40" as="geometry"/>
                </mxCell>
                <mxCell id="zT0m9KXt71LDKq0_06r3-57" value="varchar" style="shape=partialRectangle;html=1;whiteSpace=wrap;connectable=0;overflow=hidden;fillColor=none;top=0;left=0;bottom=0;right=0;" parent="zT0m9KXt71LDKq0_06r3-55" vertex="1">
                    <mxGeometry x="110" width="110" height="40" as="geometry"/>
                </mxCell>
                <mxCell id="zT0m9KXt71LDKq0_06r3-37" value="" style="shape=partialRectangle;html=1;whiteSpace=wrap;collapsible=0;dropTarget=0;pointerEvents=0;fillColor=none;top=0;left=0;bottom=0;right=0;points=[[0,0.5],[1,0.5]];portConstraint=eastwest;" parent="zT0m9KXt71LDKq0_06r3-27" vertex="1">
                    <mxGeometry y="160" width="220" height="40" as="geometry"/>
                </mxCell>
                <mxCell id="zT0m9KXt71LDKq0_06r3-38" value="username" style="shape=partialRectangle;html=1;whiteSpace=wrap;connectable=0;overflow=hidden;fillColor=none;top=0;left=0;bottom=0;right=0;" parent="zT0m9KXt71LDKq0_06r3-37" vertex="1">
                    <mxGeometry width="110" height="40" as="geometry"/>
                </mxCell>
                <mxCell id="zT0m9KXt71LDKq0_06r3-39" value="varchar" style="shape=partialRectangle;html=1;whiteSpace=wrap;connectable=0;overflow=hidden;fillColor=none;top=0;left=0;bottom=0;right=0;" parent="zT0m9KXt71LDKq0_06r3-37" vertex="1">
                    <mxGeometry x="110" width="110" height="40" as="geometry"/>
                </mxCell>
                <mxCell id="zT0m9KXt71LDKq0_06r3-40" value="" style="shape=partialRectangle;html=1;whiteSpace=wrap;collapsible=0;dropTarget=0;pointerEvents=0;fillColor=none;top=0;left=0;bottom=0;right=0;points=[[0,0.5],[1,0.5]];portConstraint=eastwest;" parent="zT0m9KXt71LDKq0_06r3-27" vertex="1">
                    <mxGeometry y="200" width="220" height="40" as="geometry"/>
                </mxCell>
                <mxCell id="zT0m9KXt71LDKq0_06r3-41" value="password" style="shape=partialRectangle;html=1;whiteSpace=wrap;connectable=0;overflow=hidden;fillColor=none;top=0;left=0;bottom=0;right=0;" parent="zT0m9KXt71LDKq0_06r3-40" vertex="1">
                    <mxGeometry width="110" height="40" as="geometry"/>
                </mxCell>
                <mxCell id="zT0m9KXt71LDKq0_06r3-42" value="varchar" style="shape=partialRectangle;html=1;whiteSpace=wrap;connectable=0;overflow=hidden;fillColor=none;top=0;left=0;bottom=0;right=0;" parent="zT0m9KXt71LDKq0_06r3-40" vertex="1">
                    <mxGeometry x="110" width="110" height="40" as="geometry"/>
                </mxCell>
                <mxCell id="zT0m9KXt71LDKq0_06r3-43" value="" style="shape=partialRectangle;html=1;whiteSpace=wrap;collapsible=0;dropTarget=0;pointerEvents=0;fillColor=none;top=0;left=0;bottom=0;right=0;points=[[0,0.5],[1,0.5]];portConstraint=eastwest;" parent="zT0m9KXt71LDKq0_06r3-27" vertex="1">
                    <mxGeometry y="240" width="220" height="40" as="geometry"/>
                </mxCell>
                <mxCell id="zT0m9KXt71LDKq0_06r3-44" value="isverified" style="shape=partialRectangle;html=1;whiteSpace=wrap;connectable=0;overflow=hidden;fillColor=none;top=0;left=0;bottom=0;right=0;" parent="zT0m9KXt71LDKq0_06r3-43" vertex="1">
                    <mxGeometry width="110" height="40" as="geometry"/>
                </mxCell>
                <mxCell id="zT0m9KXt71LDKq0_06r3-45" value="boolean" style="shape=partialRectangle;html=1;whiteSpace=wrap;connectable=0;overflow=hidden;fillColor=none;top=0;left=0;bottom=0;right=0;" parent="zT0m9KXt71LDKq0_06r3-43" vertex="1">
                    <mxGeometry x="110" width="110" height="40" as="geometry"/>
                </mxCell>
                <mxCell id="zT0m9KXt71LDKq0_06r3-46" value="" style="shape=partialRectangle;html=1;whiteSpace=wrap;collapsible=0;dropTarget=0;pointerEvents=0;fillColor=none;top=0;left=0;bottom=0;right=0;points=[[0,0.5],[1,0.5]];portConstraint=eastwest;" parent="zT0m9KXt71LDKq0_06r3-27" vertex="1">
                    <mxGeometry y="280" width="220" height="40" as="geometry"/>
                </mxCell>
                <mxCell id="zT0m9KXt71LDKq0_06r3-47" value="isadmin" style="shape=partialRectangle;html=1;whiteSpace=wrap;connectable=0;overflow=hidden;fillColor=none;top=0;left=0;bottom=0;right=0;" parent="zT0m9KXt71LDKq0_06r3-46" vertex="1">
                    <mxGeometry width="110" height="40" as="geometry"/>
                </mxCell>
                <mxCell id="zT0m9KXt71LDKq0_06r3-48" value="boolean" style="shape=partialRectangle;html=1;whiteSpace=wrap;connectable=0;overflow=hidden;fillColor=none;top=0;left=0;bottom=0;right=0;" parent="zT0m9KXt71LDKq0_06r3-46" vertex="1">
                    <mxGeometry x="110" width="110" height="40" as="geometry"/>
                </mxCell>
                <mxCell id="zT0m9KXt71LDKq0_06r3-49" value="" style="shape=partialRectangle;html=1;whiteSpace=wrap;collapsible=0;dropTarget=0;pointerEvents=0;fillColor=none;top=0;left=0;bottom=0;right=0;points=[[0,0.5],[1,0.5]];portConstraint=eastwest;" parent="zT0m9KXt71LDKq0_06r3-27" vertex="1">
                    <mxGeometry y="320" width="220" height="40" as="geometry"/>
                </mxCell>
                <mxCell id="zT0m9KXt71LDKq0_06r3-50" value="level" style="shape=partialRectangle;html=1;whiteSpace=wrap;connectable=0;overflow=hidden;fillColor=none;top=0;left=0;bottom=0;right=0;" parent="zT0m9KXt71LDKq0_06r3-49" vertex="1">
                    <mxGeometry width="110" height="40" as="geometry"/>
                </mxCell>
                <mxCell id="zT0m9KXt71LDKq0_06r3-51" value="int" style="shape=partialRectangle;html=1;whiteSpace=wrap;connectable=0;overflow=hidden;fillColor=none;top=0;left=0;bottom=0;right=0;" parent="zT0m9KXt71LDKq0_06r3-49" vertex="1">
                    <mxGeometry x="110" width="110" height="40" as="geometry"/>
                </mxCell>
                <mxCell id="zT0m9KXt71LDKq0_06r3-64" value="&lt;font style=&quot;font-size: 18px&quot;&gt;user&lt;/font&gt;" style="text;html=1;align=center;verticalAlign=middle;resizable=0;points=[];autosize=1;strokeColor=none;rotation=-1;" parent="1" vertex="1">
                    <mxGeometry x="115" y="-60" width="50" height="20" as="geometry"/>
                </mxCell>
                <mxCell id="zT0m9KXt71LDKq0_06r3-66" value="" style="shape=table;html=1;whiteSpace=wrap;startSize=0;container=1;collapsible=0;childLayout=tableLayout;" parent="1" vertex="1">
                    <mxGeometry x="290" y="-40" width="130" height="160" as="geometry"/>
                </mxCell>
                <mxCell id="zT0m9KXt71LDKq0_06r3-67" value="" style="shape=partialRectangle;html=1;whiteSpace=wrap;collapsible=0;dropTarget=0;pointerEvents=0;fillColor=none;top=0;left=0;bottom=0;right=0;points=[[0,0.5],[1,0.5]];portConstraint=eastwest;" parent="zT0m9KXt71LDKq0_06r3-66" vertex="1">
                    <mxGeometry width="130" height="40" as="geometry"/>
                </mxCell>
                <mxCell id="zT0m9KXt71LDKq0_06r3-68" value="&lt;u&gt;id&lt;/u&gt;" style="shape=partialRectangle;html=1;whiteSpace=wrap;connectable=0;overflow=hidden;fillColor=none;top=0;left=0;bottom=0;right=0;" parent="zT0m9KXt71LDKq0_06r3-67" vertex="1">
                    <mxGeometry width="70" height="40" as="geometry"/>
                </mxCell>
                <mxCell id="zT0m9KXt71LDKq0_06r3-69" value="int" style="shape=partialRectangle;html=1;whiteSpace=wrap;connectable=0;overflow=hidden;fillColor=none;top=0;left=0;bottom=0;right=0;" parent="zT0m9KXt71LDKq0_06r3-67" vertex="1">
                    <mxGeometry x="70" width="60" height="40" as="geometry"/>
                </mxCell>
                <mxCell id="zT0m9KXt71LDKq0_06r3-70" value="" style="shape=partialRectangle;html=1;whiteSpace=wrap;collapsible=0;dropTarget=0;pointerEvents=0;fillColor=none;top=0;left=0;bottom=0;right=0;points=[[0,0.5],[1,0.5]];portConstraint=eastwest;" parent="zT0m9KXt71LDKq0_06r3-66" vertex="1">
                    <mxGeometry y="40" width="130" height="40" as="geometry"/>
                </mxCell>
                <mxCell id="zT0m9KXt71LDKq0_06r3-71" value="name" style="shape=partialRectangle;html=1;whiteSpace=wrap;connectable=0;overflow=hidden;fillColor=none;top=0;left=0;bottom=0;right=0;" parent="zT0m9KXt71LDKq0_06r3-70" vertex="1">
                    <mxGeometry width="70" height="40" as="geometry"/>
                </mxCell>
                <mxCell id="zT0m9KXt71LDKq0_06r3-72" value="varchar" style="shape=partialRectangle;html=1;whiteSpace=wrap;connectable=0;overflow=hidden;fillColor=none;top=0;left=0;bottom=0;right=0;" parent="zT0m9KXt71LDKq0_06r3-70" vertex="1">
                    <mxGeometry x="70" width="60" height="40" as="geometry"/>
                </mxCell>
                <mxCell id="zT0m9KXt71LDKq0_06r3-73" value="" style="shape=partialRectangle;html=1;whiteSpace=wrap;collapsible=0;dropTarget=0;pointerEvents=0;fillColor=none;top=0;left=0;bottom=0;right=0;points=[[0,0.5],[1,0.5]];portConstraint=eastwest;" parent="zT0m9KXt71LDKq0_06r3-66" vertex="1">
                    <mxGeometry y="80" width="130" height="40" as="geometry"/>
                </mxCell>
                <mxCell id="zT0m9KXt71LDKq0_06r3-74" value="taluka" style="shape=partialRectangle;html=1;whiteSpace=wrap;connectable=0;overflow=hidden;fillColor=none;top=0;left=0;bottom=0;right=0;" parent="zT0m9KXt71LDKq0_06r3-73" vertex="1">
                    <mxGeometry width="70" height="40" as="geometry"/>
                </mxCell>
                <mxCell id="zT0m9KXt71LDKq0_06r3-75" value="taluke" style="shape=partialRectangle;html=1;whiteSpace=wrap;connectable=0;overflow=hidden;fillColor=none;top=0;left=0;bottom=0;right=0;" parent="zT0m9KXt71LDKq0_06r3-73" vertex="1">
                    <mxGeometry x="70" width="60" height="40" as="geometry"/>
                </mxCell>
                <mxCell id="zT0m9KXt71LDKq0_06r3-76" value="" style="shape=partialRectangle;html=1;whiteSpace=wrap;collapsible=0;dropTarget=0;pointerEvents=0;fillColor=none;top=0;left=0;bottom=0;right=0;points=[[0,0.5],[1,0.5]];portConstraint=eastwest;" parent="zT0m9KXt71LDKq0_06r3-66" vertex="1">
                    <mxGeometry y="120" width="130" height="40" as="geometry"/>
                </mxCell>
                <mxCell id="zT0m9KXt71LDKq0_06r3-77" value="pin" style="shape=partialRectangle;html=1;whiteSpace=wrap;connectable=0;overflow=hidden;fillColor=none;top=0;left=0;bottom=0;right=0;" parent="zT0m9KXt71LDKq0_06r3-76" vertex="1">
                    <mxGeometry width="70" height="40" as="geometry"/>
                </mxCell>
                <mxCell id="zT0m9KXt71LDKq0_06r3-78" value="varchar" style="shape=partialRectangle;html=1;whiteSpace=wrap;connectable=0;overflow=hidden;fillColor=none;top=0;left=0;bottom=0;right=0;" parent="zT0m9KXt71LDKq0_06r3-76" vertex="1">
                    <mxGeometry x="70" width="60" height="40" as="geometry"/>
                </mxCell>
                <mxCell id="zT0m9KXt71LDKq0_06r3-79" value="&lt;font style=&quot;font-size: 18px&quot;&gt;office&lt;/font&gt;" style="text;html=1;align=center;verticalAlign=middle;resizable=0;points=[];autosize=1;strokeColor=none;" parent="1" vertex="1">
                    <mxGeometry x="325" y="-60" width="60" height="20" as="geometry"/>
                </mxCell>
                <mxCell id="zT0m9KXt71LDKq0_06r3-80" value="" style="shape=table;html=1;whiteSpace=wrap;startSize=0;container=1;collapsible=0;childLayout=tableLayout;" parent="1" vertex="1">
                    <mxGeometry x="480" y="-40" width="120" height="80" as="geometry"/>
                </mxCell>
                <mxCell id="zT0m9KXt71LDKq0_06r3-81" value="" style="shape=partialRectangle;html=1;whiteSpace=wrap;collapsible=0;dropTarget=0;pointerEvents=0;fillColor=none;top=0;left=0;bottom=0;right=0;points=[[0,0.5],[1,0.5]];portConstraint=eastwest;" parent="zT0m9KXt71LDKq0_06r3-80" vertex="1">
                    <mxGeometry width="120" height="40" as="geometry"/>
                </mxCell>
                <mxCell id="zT0m9KXt71LDKq0_06r3-82" value="&lt;u&gt;id&lt;/u&gt;" style="shape=partialRectangle;html=1;whiteSpace=wrap;connectable=0;overflow=hidden;fillColor=none;top=0;left=0;bottom=0;right=0;" parent="zT0m9KXt71LDKq0_06r3-81" vertex="1">
                    <mxGeometry width="60" height="40" as="geometry"/>
                </mxCell>
                <mxCell id="zT0m9KXt71LDKq0_06r3-83" value="int" style="shape=partialRectangle;html=1;whiteSpace=wrap;connectable=0;overflow=hidden;fillColor=none;top=0;left=0;bottom=0;right=0;" parent="zT0m9KXt71LDKq0_06r3-81" vertex="1">
                    <mxGeometry x="60" width="60" height="40" as="geometry"/>
                </mxCell>
                <mxCell id="zT0m9KXt71LDKq0_06r3-84" value="" style="shape=partialRectangle;html=1;whiteSpace=wrap;collapsible=0;dropTarget=0;pointerEvents=0;fillColor=none;top=0;left=0;bottom=0;right=0;points=[[0,0.5],[1,0.5]];portConstraint=eastwest;" parent="zT0m9KXt71LDKq0_06r3-80" vertex="1">
                    <mxGeometry y="40" width="120" height="40" as="geometry"/>
                </mxCell>
                <mxCell id="zT0m9KXt71LDKq0_06r3-85" value="name" style="shape=partialRectangle;html=1;whiteSpace=wrap;connectable=0;overflow=hidden;fillColor=none;top=0;left=0;bottom=0;right=0;" parent="zT0m9KXt71LDKq0_06r3-84" vertex="1">
                    <mxGeometry width="60" height="40" as="geometry"/>
                </mxCell>
                <mxCell id="zT0m9KXt71LDKq0_06r3-86" value="varchar" style="shape=partialRectangle;html=1;whiteSpace=wrap;connectable=0;overflow=hidden;fillColor=none;top=0;left=0;bottom=0;right=0;" parent="zT0m9KXt71LDKq0_06r3-84" vertex="1">
                    <mxGeometry x="60" width="60" height="40" as="geometry"/>
                </mxCell>
                <mxCell id="zT0m9KXt71LDKq0_06r3-93" value="&lt;font style=&quot;font-size: 18px&quot;&gt;department&lt;/font&gt;" style="text;html=1;align=center;verticalAlign=middle;resizable=0;points=[];autosize=1;strokeColor=none;" parent="1" vertex="1">
                    <mxGeometry x="480" y="-60" width="110" height="20" as="geometry"/>
                </mxCell>
                <mxCell id="zT0m9KXt71LDKq0_06r3-94" value="" style="shape=table;html=1;whiteSpace=wrap;startSize=0;container=1;collapsible=0;childLayout=tableLayout;" parent="1" vertex="1">
                    <mxGeometry x="680" y="-40" width="150" height="840" as="geometry"/>
                </mxCell>
                <mxCell id="zT0m9KXt71LDKq0_06r3-95" value="" style="shape=partialRectangle;html=1;whiteSpace=wrap;collapsible=0;dropTarget=0;pointerEvents=0;fillColor=none;top=0;left=0;bottom=0;right=0;points=[[0,0.5],[1,0.5]];portConstraint=eastwest;" parent="zT0m9KXt71LDKq0_06r3-94" vertex="1">
                    <mxGeometry width="150" height="40" as="geometry"/>
                </mxCell>
                <mxCell id="zT0m9KXt71LDKq0_06r3-96" value="&lt;u&gt;id&lt;/u&gt;" style="shape=partialRectangle;html=1;whiteSpace=wrap;connectable=0;overflow=hidden;fillColor=none;top=0;left=0;bottom=0;right=0;" parent="zT0m9KXt71LDKq0_06r3-95" vertex="1">
                    <mxGeometry width="80" height="40" as="geometry"/>
                </mxCell>
                <mxCell id="zT0m9KXt71LDKq0_06r3-97" value="int" style="shape=partialRectangle;html=1;whiteSpace=wrap;connectable=0;overflow=hidden;fillColor=none;top=0;left=0;bottom=0;right=0;" parent="zT0m9KXt71LDKq0_06r3-95" vertex="1">
                    <mxGeometry x="80" width="70" height="40" as="geometry"/>
                </mxCell>
                <mxCell id="2" value="" style="shape=partialRectangle;html=1;whiteSpace=wrap;collapsible=0;dropTarget=0;pointerEvents=0;fillColor=none;top=0;left=0;bottom=0;right=0;points=[[0,0.5],[1,0.5]];portConstraint=eastwest;" parent="zT0m9KXt71LDKq0_06r3-94" vertex="1">
                    <mxGeometry y="40" width="150" height="40" as="geometry"/>
                </mxCell>
                <mxCell id="3" value="zp_code" style="shape=partialRectangle;html=1;whiteSpace=wrap;connectable=0;overflow=hidden;fillColor=none;top=0;left=0;bottom=0;right=0;" parent="2" vertex="1">
                    <mxGeometry width="80" height="40" as="geometry"/>
                </mxCell>
                <mxCell id="4" value="varchar" style="shape=partialRectangle;html=1;whiteSpace=wrap;connectable=0;overflow=hidden;fillColor=none;top=0;left=0;bottom=0;right=0;" parent="2" vertex="1">
                    <mxGeometry x="80" width="70" height="40" as="geometry"/>
                </mxCell>
                <mxCell id="5" value="" style="shape=partialRectangle;html=1;whiteSpace=wrap;collapsible=0;dropTarget=0;pointerEvents=0;fillColor=none;top=0;left=0;bottom=0;right=0;points=[[0,0.5],[1,0.5]];portConstraint=eastwest;" parent="zT0m9KXt71LDKq0_06r3-94" vertex="1">
                    <mxGeometry y="80" width="150" height="40" as="geometry"/>
                </mxCell>
                <mxCell id="6" value="gov_code" style="shape=partialRectangle;html=1;whiteSpace=wrap;connectable=0;overflow=hidden;fillColor=none;top=0;left=0;bottom=0;right=0;" parent="5" vertex="1">
                    <mxGeometry width="80" height="40" as="geometry"/>
                </mxCell>
                <mxCell id="7" value="varchar" style="shape=partialRectangle;html=1;whiteSpace=wrap;connectable=0;overflow=hidden;fillColor=none;top=0;left=0;bottom=0;right=0;" parent="5" vertex="1">
                    <mxGeometry x="80" width="70" height="40" as="geometry"/>
                </mxCell>
                <mxCell id="zT0m9KXt71LDKq0_06r3-98" value="" style="shape=partialRectangle;html=1;whiteSpace=wrap;collapsible=0;dropTarget=0;pointerEvents=0;fillColor=none;top=0;left=0;bottom=0;right=0;points=[[0,0.5],[1,0.5]];portConstraint=eastwest;" parent="zT0m9KXt71LDKq0_06r3-94" vertex="1">
                    <mxGeometry y="120" width="150" height="40" as="geometry"/>
                </mxCell>
                <mxCell id="zT0m9KXt71LDKq0_06r3-99" value="officeid" style="shape=partialRectangle;html=1;whiteSpace=wrap;connectable=0;overflow=hidden;fillColor=none;top=0;left=0;bottom=0;right=0;" parent="zT0m9KXt71LDKq0_06r3-98" vertex="1">
                    <mxGeometry width="80" height="40" as="geometry"/>
                </mxCell>
                <mxCell id="zT0m9KXt71LDKq0_06r3-100" value="int" style="shape=partialRectangle;html=1;whiteSpace=wrap;connectable=0;overflow=hidden;fillColor=none;top=0;left=0;bottom=0;right=0;" parent="zT0m9KXt71LDKq0_06r3-98" vertex="1">
                    <mxGeometry x="80" width="70" height="40" as="geometry"/>
                </mxCell>
                <mxCell id="zT0m9KXt71LDKq0_06r3-101" value="" style="shape=partialRectangle;html=1;whiteSpace=wrap;collapsible=0;dropTarget=0;pointerEvents=0;fillColor=none;top=0;left=0;bottom=0;right=0;points=[[0,0.5],[1,0.5]];portConstraint=eastwest;" parent="zT0m9KXt71LDKq0_06r3-94" vertex="1">
                    <mxGeometry y="160" width="150" height="40" as="geometry"/>
                </mxCell>
                <mxCell id="zT0m9KXt71LDKq0_06r3-102" value="deptid" style="shape=partialRectangle;html=1;whiteSpace=wrap;connectable=0;overflow=hidden;fillColor=none;top=0;left=0;bottom=0;right=0;" parent="zT0m9KXt71LDKq0_06r3-101" vertex="1">
                    <mxGeometry width="80" height="40" as="geometry"/>
                </mxCell>
                <mxCell id="zT0m9KXt71LDKq0_06r3-103" value="int" style="shape=partialRectangle;html=1;whiteSpace=wrap;connectable=0;overflow=hidden;fillColor=none;top=0;left=0;bottom=0;right=0;" parent="zT0m9KXt71LDKq0_06r3-101" vertex="1">
                    <mxGeometry x="80" width="70" height="40" as="geometry"/>
                </mxCell>
                <mxCell id="zT0m9KXt71LDKq0_06r3-104" value="" style="shape=partialRectangle;html=1;whiteSpace=wrap;collapsible=0;dropTarget=0;pointerEvents=0;fillColor=none;top=0;left=0;bottom=0;right=0;points=[[0,0.5],[1,0.5]];portConstraint=eastwest;" parent="zT0m9KXt71LDKq0_06r3-94" vertex="1">
                    <mxGeometry y="200" width="150" height="40" as="geometry"/>
                </mxCell>
                <mxCell id="zT0m9KXt71LDKq0_06r3-105" value="name" style="shape=partialRectangle;html=1;whiteSpace=wrap;connectable=0;overflow=hidden;fillColor=none;top=0;left=0;bottom=0;right=0;" parent="zT0m9KXt71LDKq0_06r3-104" vertex="1">
                    <mxGeometry width="80" height="40" as="geometry"/>
                </mxCell>
                <mxCell id="zT0m9KXt71LDKq0_06r3-106" value="varchar" style="shape=partialRectangle;html=1;whiteSpace=wrap;connectable=0;overflow=hidden;fillColor=none;top=0;left=0;bottom=0;right=0;" parent="zT0m9KXt71LDKq0_06r3-104" vertex="1">
                    <mxGeometry x="80" width="70" height="40" as="geometry"/>
                </mxCell>
                <mxCell id="zT0m9KXt71LDKq0_06r3-107" value="" style="shape=partialRectangle;html=1;whiteSpace=wrap;collapsible=0;dropTarget=0;pointerEvents=0;fillColor=none;top=0;left=0;bottom=0;right=0;points=[[0,0.5],[1,0.5]];portConstraint=eastwest;" parent="zT0m9KXt71LDKq0_06r3-94" vertex="1">
                    <mxGeometry y="240" width="150" height="40" as="geometry"/>
                </mxCell>
                <mxCell id="zT0m9KXt71LDKq0_06r3-108" value="fy" style="shape=partialRectangle;html=1;whiteSpace=wrap;connectable=0;overflow=hidden;fillColor=none;top=0;left=0;bottom=0;right=0;" parent="zT0m9KXt71LDKq0_06r3-107" vertex="1">
                    <mxGeometry width="80" height="40" as="geometry"/>
                </mxCell>
                <mxCell id="zT0m9KXt71LDKq0_06r3-109" value="varchar" style="shape=partialRectangle;html=1;whiteSpace=wrap;connectable=0;overflow=hidden;fillColor=none;top=0;left=0;bottom=0;right=0;" parent="zT0m9KXt71LDKq0_06r3-107" vertex="1">
                    <mxGeometry x="80" width="70" height="40" as="geometry"/>
                </mxCell>
                <mxCell id="zT0m9KXt71LDKq0_06r3-110" value="" style="shape=partialRectangle;html=1;whiteSpace=wrap;collapsible=0;dropTarget=0;pointerEvents=0;fillColor=none;top=0;left=0;bottom=0;right=0;points=[[0,0.5],[1,0.5]];portConstraint=eastwest;" parent="zT0m9KXt71LDKq0_06r3-94" vertex="1">
                    <mxGeometry y="280" width="150" height="40" as="geometry"/>
                </mxCell>
                <mxCell id="zT0m9KXt71LDKq0_06r3-111" value="nature" style="shape=partialRectangle;html=1;whiteSpace=wrap;connectable=0;overflow=hidden;fillColor=none;top=0;left=0;bottom=0;right=0;" parent="zT0m9KXt71LDKq0_06r3-110" vertex="1">
                    <mxGeometry width="80" height="40" as="geometry"/>
                </mxCell>
                <mxCell id="zT0m9KXt71LDKq0_06r3-112" value="varchar" style="shape=partialRectangle;html=1;whiteSpace=wrap;connectable=0;overflow=hidden;fillColor=none;top=0;left=0;bottom=0;right=0;" parent="zT0m9KXt71LDKq0_06r3-110" vertex="1">
                    <mxGeometry x="80" width="70" height="40" as="geometry"/>
                </mxCell>
                <mxCell id="zT0m9KXt71LDKq0_06r3-116" value="" style="shape=partialRectangle;html=1;whiteSpace=wrap;collapsible=0;dropTarget=0;pointerEvents=0;fillColor=none;top=0;left=0;bottom=0;right=0;points=[[0,0.5],[1,0.5]];portConstraint=eastwest;" parent="zT0m9KXt71LDKq0_06r3-94" vertex="1">
                    <mxGeometry y="320" width="150" height="40" as="geometry"/>
                </mxCell>
                <UserObject label="provision" tooltip="ask how to enter amt like 10cr or whole amt" id="zT0m9KXt71LDKq0_06r3-117">
                    <mxCell style="shape=partialRectangle;html=1;whiteSpace=wrap;connectable=0;overflow=hidden;fillColor=none;top=0;left=0;bottom=0;right=0;" parent="zT0m9KXt71LDKq0_06r3-116" vertex="1">
                        <mxGeometry width="80" height="40" as="geometry"/>
                    </mxCell>
                </UserObject>
                <mxCell id="zT0m9KXt71LDKq0_06r3-118" value="int" style="shape=partialRectangle;html=1;whiteSpace=wrap;connectable=0;overflow=hidden;fillColor=none;top=0;left=0;bottom=0;right=0;" parent="zT0m9KXt71LDKq0_06r3-116" vertex="1">
                    <mxGeometry x="80" width="70" height="40" as="geometry"/>
                </mxCell>
                <mxCell id="zT0m9KXt71LDKq0_06r3-119" value="" style="shape=partialRectangle;html=1;whiteSpace=wrap;collapsible=0;dropTarget=0;pointerEvents=0;fillColor=none;top=0;left=0;bottom=0;right=0;points=[[0,0.5],[1,0.5]];portConstraint=eastwest;" parent="zT0m9KXt71LDKq0_06r3-94" vertex="1">
                    <mxGeometry y="360" width="150" height="40" as="geometry"/>
                </mxCell>
                <mxCell id="zT0m9KXt71LDKq0_06r3-120" value="pexp" style="shape=partialRectangle;html=1;whiteSpace=wrap;connectable=0;overflow=hidden;fillColor=none;top=0;left=0;bottom=0;right=0;" parent="zT0m9KXt71LDKq0_06r3-119" vertex="1">
                    <mxGeometry width="80" height="40" as="geometry"/>
                </mxCell>
                <mxCell id="zT0m9KXt71LDKq0_06r3-121" value="int" style="shape=partialRectangle;html=1;whiteSpace=wrap;connectable=0;overflow=hidden;fillColor=none;top=0;left=0;bottom=0;right=0;" parent="zT0m9KXt71LDKq0_06r3-119" vertex="1">
                    <mxGeometry x="80" width="70" height="40" as="geometry"/>
                </mxCell>
                <mxCell id="zT0m9KXt71LDKq0_06r3-122" value="" style="shape=partialRectangle;html=1;whiteSpace=wrap;collapsible=0;dropTarget=0;pointerEvents=0;fillColor=none;top=0;left=0;bottom=0;right=0;points=[[0,0.5],[1,0.5]];portConstraint=eastwest;" parent="zT0m9KXt71LDKq0_06r3-94" vertex="1">
                    <mxGeometry y="400" width="150" height="40" as="geometry"/>
                </mxCell>
                <UserObject label="billamt" tooltip="meaning" id="zT0m9KXt71LDKq0_06r3-123">
                    <mxCell style="shape=partialRectangle;html=1;whiteSpace=wrap;connectable=0;overflow=hidden;fillColor=none;top=0;left=0;bottom=0;right=0;" parent="zT0m9KXt71LDKq0_06r3-122" vertex="1">
                        <mxGeometry width="80" height="40" as="geometry"/>
                    </mxCell>
                </UserObject>
                <mxCell id="zT0m9KXt71LDKq0_06r3-124" value="int" style="shape=partialRectangle;html=1;whiteSpace=wrap;connectable=0;overflow=hidden;fillColor=none;top=0;left=0;bottom=0;right=0;" parent="zT0m9KXt71LDKq0_06r3-122" vertex="1">
                    <mxGeometry x="80" width="70" height="40" as="geometry"/>
                </mxCell>
                <mxCell id="zT0m9KXt71LDKq0_06r3-128" value="" style="shape=partialRectangle;html=1;whiteSpace=wrap;collapsible=0;dropTarget=0;pointerEvents=0;fillColor=none;top=0;left=0;bottom=0;right=0;points=[[0,0.5],[1,0.5]];portConstraint=eastwest;" parent="zT0m9KXt71LDKq0_06r3-94" vertex="1">
                    <mxGeometry y="440" width="150" height="40" as="geometry"/>
                </mxCell>
                <mxCell id="zT0m9KXt71LDKq0_06r3-129" value="vno" style="shape=partialRectangle;html=1;whiteSpace=wrap;connectable=0;overflow=hidden;fillColor=none;top=0;left=0;bottom=0;right=0;" parent="zT0m9KXt71LDKq0_06r3-128" vertex="1">
                    <mxGeometry width="80" height="40" as="geometry"/>
                </mxCell>
                <mxCell id="zT0m9KXt71LDKq0_06r3-130" value="int" style="shape=partialRectangle;html=1;whiteSpace=wrap;connectable=0;overflow=hidden;fillColor=none;top=0;left=0;bottom=0;right=0;" parent="zT0m9KXt71LDKq0_06r3-128" vertex="1">
                    <mxGeometry x="80" width="70" height="40" as="geometry"/>
                </mxCell>
                <mxCell id="zT0m9KXt71LDKq0_06r3-131" value="" style="shape=partialRectangle;html=1;whiteSpace=wrap;collapsible=0;dropTarget=0;pointerEvents=0;fillColor=none;top=0;left=0;bottom=0;right=0;points=[[0,0.5],[1,0.5]];portConstraint=eastwest;" parent="zT0m9KXt71LDKq0_06r3-94" vertex="1">
                    <mxGeometry y="480" width="150" height="40" as="geometry"/>
                </mxCell>
                <UserObject label="&lt;span style=&quot;background-color: rgb(255 , 51 , 51)&quot;&gt;date&lt;/span&gt;" tooltip="what is it after approval entry field" id="zT0m9KXt71LDKq0_06r3-132">
                    <mxCell style="shape=partialRectangle;html=1;whiteSpace=wrap;connectable=0;overflow=hidden;fillColor=none;top=0;left=0;bottom=0;right=0;" parent="zT0m9KXt71LDKq0_06r3-131" vertex="1">
                        <mxGeometry width="80" height="40" as="geometry"/>
                    </mxCell>
                </UserObject>
                <mxCell id="zT0m9KXt71LDKq0_06r3-133" value="date" style="shape=partialRectangle;html=1;whiteSpace=wrap;connectable=0;overflow=hidden;fillColor=none;top=0;left=0;bottom=0;right=0;" parent="zT0m9KXt71LDKq0_06r3-131" vertex="1">
                    <mxGeometry x="80" width="70" height="40" as="geometry"/>
                </mxCell>
                <mxCell id="zT0m9KXt71LDKq0_06r3-134" value="" style="shape=partialRectangle;html=1;whiteSpace=wrap;collapsible=0;dropTarget=0;pointerEvents=0;fillColor=none;top=0;left=0;bottom=0;right=0;points=[[0,0.5],[1,0.5]];portConstraint=eastwest;" parent="zT0m9KXt71LDKq0_06r3-94" vertex="1">
                    <mxGeometry y="520" width="150" height="40" as="geometry"/>
                </mxCell>
                <mxCell id="zT0m9KXt71LDKq0_06r3-135" value="acceptamt" style="shape=partialRectangle;html=1;whiteSpace=wrap;connectable=0;overflow=hidden;fillColor=none;top=0;left=0;bottom=0;right=0;" parent="zT0m9KXt71LDKq0_06r3-134" vertex="1">
                    <mxGeometry width="80" height="40" as="geometry"/>
                </mxCell>
                <mxCell id="zT0m9KXt71LDKq0_06r3-136" value="int" style="shape=partialRectangle;html=1;whiteSpace=wrap;connectable=0;overflow=hidden;fillColor=none;top=0;left=0;bottom=0;right=0;" parent="zT0m9KXt71LDKq0_06r3-134" vertex="1">
                    <mxGeometry x="80" width="70" height="40" as="geometry"/>
                </mxCell>
                <mxCell id="zT0m9KXt71LDKq0_06r3-137" value="" style="shape=partialRectangle;html=1;whiteSpace=wrap;collapsible=0;dropTarget=0;pointerEvents=0;fillColor=none;top=0;left=0;bottom=0;right=0;points=[[0,0.5],[1,0.5]];portConstraint=eastwest;" parent="zT0m9KXt71LDKq0_06r3-94" vertex="1">
                    <mxGeometry y="560" width="150" height="40" as="geometry"/>
                </mxCell>
                <mxCell id="zT0m9KXt71LDKq0_06r3-138" value="status" style="shape=partialRectangle;html=1;whiteSpace=wrap;connectable=0;overflow=hidden;fillColor=none;top=0;left=0;bottom=0;right=0;" parent="zT0m9KXt71LDKq0_06r3-137" vertex="1">
                    <mxGeometry width="80" height="40" as="geometry"/>
                </mxCell>
                <mxCell id="zT0m9KXt71LDKq0_06r3-139" value="varchar" style="shape=partialRectangle;html=1;whiteSpace=wrap;connectable=0;overflow=hidden;fillColor=none;top=0;left=0;bottom=0;right=0;" parent="zT0m9KXt71LDKq0_06r3-137" vertex="1">
                    <mxGeometry x="80" width="70" height="40" as="geometry"/>
                </mxCell>
                <mxCell id="zT0m9KXt71LDKq0_06r3-140" value="" style="shape=partialRectangle;html=1;whiteSpace=wrap;collapsible=0;dropTarget=0;pointerEvents=0;fillColor=none;top=0;left=0;bottom=0;right=0;points=[[0,0.5],[1,0.5]];portConstraint=eastwest;" parent="zT0m9KXt71LDKq0_06r3-94" vertex="1">
                    <mxGeometry y="600" width="150" height="40" as="geometry"/>
                </mxCell>
                <mxCell id="zT0m9KXt71LDKq0_06r3-141" value="reason" style="shape=partialRectangle;html=1;whiteSpace=wrap;connectable=0;overflow=hidden;fillColor=none;top=0;left=0;bottom=0;right=0;" parent="zT0m9KXt71LDKq0_06r3-140" vertex="1">
                    <mxGeometry width="80" height="40" as="geometry"/>
                </mxCell>
                <mxCell id="zT0m9KXt71LDKq0_06r3-142" value="varchar" style="shape=partialRectangle;html=1;whiteSpace=wrap;connectable=0;overflow=hidden;fillColor=none;top=0;left=0;bottom=0;right=0;" parent="zT0m9KXt71LDKq0_06r3-140" vertex="1">
                    <mxGeometry x="80" width="70" height="40" as="geometry"/>
                </mxCell>
                <mxCell id="zT0m9KXt71LDKq0_06r3-143" value="" style="shape=partialRectangle;html=1;whiteSpace=wrap;collapsible=0;dropTarget=0;pointerEvents=0;fillColor=none;top=0;left=0;bottom=0;right=0;points=[[0,0.5],[1,0.5]];portConstraint=eastwest;" parent="zT0m9KXt71LDKq0_06r3-94" vertex="1">
                    <mxGeometry y="640" width="150" height="40" as="geometry"/>
                </mxCell>
                <mxCell id="zT0m9KXt71LDKq0_06r3-144" value="created_at" style="shape=partialRectangle;html=1;whiteSpace=wrap;connectable=0;overflow=hidden;fillColor=none;top=0;left=0;bottom=0;right=0;" parent="zT0m9KXt71LDKq0_06r3-143" vertex="1">
                    <mxGeometry width="80" height="40" as="geometry"/>
                </mxCell>
                <mxCell id="zT0m9KXt71LDKq0_06r3-145" value="date" style="shape=partialRectangle;html=1;whiteSpace=wrap;connectable=0;overflow=hidden;fillColor=none;top=0;left=0;bottom=0;right=0;" parent="zT0m9KXt71LDKq0_06r3-143" vertex="1">
                    <mxGeometry x="80" width="70" height="40" as="geometry"/>
                </mxCell>
                <mxCell id="zT0m9KXt71LDKq0_06r3-146" value="" style="shape=partialRectangle;html=1;whiteSpace=wrap;collapsible=0;dropTarget=0;pointerEvents=0;fillColor=none;top=0;left=0;bottom=0;right=0;points=[[0,0.5],[1,0.5]];portConstraint=eastwest;" parent="zT0m9KXt71LDKq0_06r3-94" vertex="1">
                    <mxGeometry y="680" width="150" height="40" as="geometry"/>
                </mxCell>
                <mxCell id="zT0m9KXt71LDKq0_06r3-147" value="approved_at" style="shape=partialRectangle;html=1;whiteSpace=wrap;connectable=0;overflow=hidden;fillColor=none;top=0;left=0;bottom=0;right=0;" parent="zT0m9KXt71LDKq0_06r3-146" vertex="1">
                    <mxGeometry width="80" height="40" as="geometry"/>
                </mxCell>
                <mxCell id="zT0m9KXt71LDKq0_06r3-148" value="date" style="shape=partialRectangle;html=1;whiteSpace=wrap;connectable=0;overflow=hidden;fillColor=none;top=0;left=0;bottom=0;right=0;" parent="zT0m9KXt71LDKq0_06r3-146" vertex="1">
                    <mxGeometry x="80" width="70" height="40" as="geometry"/>
                </mxCell>
                <mxCell id="zT0m9KXt71LDKq0_06r3-374" value="" style="shape=partialRectangle;html=1;whiteSpace=wrap;collapsible=0;dropTarget=0;pointerEvents=0;fillColor=none;top=0;left=0;bottom=0;right=0;points=[[0,0.5],[1,0.5]];portConstraint=eastwest;" parent="zT0m9KXt71LDKq0_06r3-94" vertex="1">
                    <mxGeometry y="720" width="150" height="40" as="geometry"/>
                </mxCell>
                <mxCell id="zT0m9KXt71LDKq0_06r3-375" value="updated_at" style="shape=partialRectangle;html=1;whiteSpace=wrap;connectable=0;overflow=hidden;fillColor=none;top=0;left=0;bottom=0;right=0;" parent="zT0m9KXt71LDKq0_06r3-374" vertex="1">
                    <mxGeometry width="80" height="40" as="geometry"/>
                </mxCell>
                <mxCell id="zT0m9KXt71LDKq0_06r3-376" value="date" style="shape=partialRectangle;html=1;whiteSpace=wrap;connectable=0;overflow=hidden;fillColor=none;top=0;left=0;bottom=0;right=0;" parent="zT0m9KXt71LDKq0_06r3-374" vertex="1">
                    <mxGeometry x="80" width="70" height="40" as="geometry"/>
                </mxCell>
                <mxCell id="zT0m9KXt71LDKq0_06r3-377" value="" style="shape=partialRectangle;html=1;whiteSpace=wrap;collapsible=0;dropTarget=0;pointerEvents=0;fillColor=none;top=0;left=0;bottom=0;right=0;points=[[0,0.5],[1,0.5]];portConstraint=eastwest;" parent="zT0m9KXt71LDKq0_06r3-94" vertex="1">
                    <mxGeometry y="760" width="150" height="40" as="geometry"/>
                </mxCell>
                <mxCell id="zT0m9KXt71LDKq0_06r3-378" value="created_by" style="shape=partialRectangle;html=1;whiteSpace=wrap;connectable=0;overflow=hidden;fillColor=none;top=0;left=0;bottom=0;right=0;" parent="zT0m9KXt71LDKq0_06r3-377" vertex="1">
                    <mxGeometry width="80" height="40" as="geometry"/>
                </mxCell>
                <mxCell id="zT0m9KXt71LDKq0_06r3-379" value="varchar" style="shape=partialRectangle;html=1;whiteSpace=wrap;connectable=0;overflow=hidden;fillColor=none;top=0;left=0;bottom=0;right=0;" parent="zT0m9KXt71LDKq0_06r3-377" vertex="1">
                    <mxGeometry x="80" width="70" height="40" as="geometry"/>
                </mxCell>
                <mxCell id="zT0m9KXt71LDKq0_06r3-380" value="" style="shape=partialRectangle;html=1;whiteSpace=wrap;collapsible=0;dropTarget=0;pointerEvents=0;fillColor=none;top=0;left=0;bottom=0;right=0;points=[[0,0.5],[1,0.5]];portConstraint=eastwest;" parent="zT0m9KXt71LDKq0_06r3-94" vertex="1">
                    <mxGeometry y="800" width="150" height="40" as="geometry"/>
                </mxCell>
                <mxCell id="zT0m9KXt71LDKq0_06r3-381" value="approved_by" style="shape=partialRectangle;html=1;whiteSpace=wrap;connectable=0;overflow=hidden;fillColor=none;top=0;left=0;bottom=0;right=0;" parent="zT0m9KXt71LDKq0_06r3-380" vertex="1">
                    <mxGeometry width="80" height="40" as="geometry"/>
                </mxCell>
                <mxCell id="zT0m9KXt71LDKq0_06r3-382" value="varchar" style="shape=partialRectangle;html=1;whiteSpace=wrap;connectable=0;overflow=hidden;fillColor=none;top=0;left=0;bottom=0;right=0;" parent="zT0m9KXt71LDKq0_06r3-380" vertex="1">
                    <mxGeometry x="80" width="70" height="40" as="geometry"/>
                </mxCell>
                <mxCell id="zT0m9KXt71LDKq0_06r3-149" value="&lt;font style=&quot;font-size: 18px&quot;&gt;bills&lt;/font&gt;" style="text;html=1;align=center;verticalAlign=middle;resizable=0;points=[];autosize=1;strokeColor=none;" parent="1" vertex="1">
                    <mxGeometry x="740" y="-60" width="50" height="20" as="geometry"/>
                </mxCell>
                <mxCell id="zT0m9KXt71LDKq0_06r3-383" style="edgeStyle=orthogonalEdgeStyle;rounded=0;orthogonalLoop=1;jettySize=auto;html=1;entryX=0;entryY=0.5;entryDx=0;entryDy=0;" parent="1" source="zT0m9KXt71LDKq0_06r3-81" target="zT0m9KXt71LDKq0_06r3-101" edge="1">
                    <mxGeometry relative="1" as="geometry"/>
                </mxCell>
                <mxCell id="zT0m9KXt71LDKq0_06r3-384" style="edgeStyle=orthogonalEdgeStyle;rounded=0;orthogonalLoop=1;jettySize=auto;html=1;entryX=0;entryY=0.5;entryDx=0;entryDy=0;" parent="1" source="zT0m9KXt71LDKq0_06r3-67" target="zT0m9KXt71LDKq0_06r3-98" edge="1">
                    <mxGeometry relative="1" as="geometry">
                        <Array as="points">
                            <mxPoint x="440" y="-20"/>
                            <mxPoint x="440" y="80"/>
                            <mxPoint x="550" y="80"/>
                            <mxPoint x="550" y="60"/>
                        </Array>
                    </mxGeometry>
                </mxCell>
                <mxCell id="zT0m9KXt71LDKq0_06r3-385" style="edgeStyle=orthogonalEdgeStyle;rounded=0;orthogonalLoop=1;jettySize=auto;html=1;entryX=1.002;entryY=0.695;entryDx=0;entryDy=0;entryPerimeter=0;" parent="1" source="zT0m9KXt71LDKq0_06r3-67" target="zT0m9KXt71LDKq0_06r3-34" edge="1">
                    <mxGeometry relative="1" as="geometry"/>
                </mxCell>
                <mxCell id="zT0m9KXt71LDKq0_06r3-386" style="edgeStyle=orthogonalEdgeStyle;rounded=0;orthogonalLoop=1;jettySize=auto;html=1;entryX=0;entryY=0.5;entryDx=0;entryDy=0;" parent="1" source="zT0m9KXt71LDKq0_06r3-81" target="zT0m9KXt71LDKq0_06r3-31" edge="1">
                    <mxGeometry relative="1" as="geometry">
                        <Array as="points">
                            <mxPoint x="470" y="-20"/>
                            <mxPoint x="470" y="-90"/>
                            <mxPoint y="-90"/>
                            <mxPoint y="20"/>
                        </Array>
                    </mxGeometry>
                </mxCell>
                <mxCell id="8" value="" style="shape=table;html=1;whiteSpace=wrap;startSize=0;container=1;collapsible=0;childLayout=tableLayout;" parent="1" vertex="1">
                    <mxGeometry x="450" y="140" width="120" height="280" as="geometry"/>
                </mxCell>
                <mxCell id="9" value="" style="shape=partialRectangle;html=1;whiteSpace=wrap;collapsible=0;dropTarget=0;pointerEvents=0;fillColor=none;top=0;left=0;bottom=0;right=0;points=[[0,0.5],[1,0.5]];portConstraint=eastwest;" parent="8" vertex="1">
                    <mxGeometry width="120" height="40" as="geometry"/>
                </mxCell>
                <mxCell id="10" value="billd" style="shape=partialRectangle;html=1;whiteSpace=wrap;connectable=0;overflow=hidden;fillColor=none;top=0;left=0;bottom=0;right=0;" parent="9" vertex="1">
                    <mxGeometry width="60" height="40" as="geometry"/>
                </mxCell>
                <mxCell id="11" value="int" style="shape=partialRectangle;html=1;whiteSpace=wrap;connectable=0;overflow=hidden;fillColor=none;top=0;left=0;bottom=0;right=0;" parent="9" vertex="1">
                    <mxGeometry x="60" width="60" height="40" as="geometry"/>
                </mxCell>
                <mxCell id="12" value="" style="shape=partialRectangle;html=1;whiteSpace=wrap;collapsible=0;dropTarget=0;pointerEvents=0;fillColor=none;top=0;left=0;bottom=0;right=0;points=[[0,0.5],[1,0.5]];portConstraint=eastwest;" parent="8" vertex="1">
                    <mxGeometry y="40" width="120" height="40" as="geometry"/>
                </mxCell>
                <mxCell id="13" value="pay" style="shape=partialRectangle;html=1;whiteSpace=wrap;connectable=0;overflow=hidden;fillColor=none;top=0;left=0;bottom=0;right=0;" parent="12" vertex="1">
                    <mxGeometry width="60" height="40" as="geometry"/>
                </mxCell>
                <mxCell id="14" value="int" style="shape=partialRectangle;html=1;whiteSpace=wrap;connectable=0;overflow=hidden;fillColor=none;top=0;left=0;bottom=0;right=0;" parent="12" vertex="1">
                    <mxGeometry x="60" width="60" height="40" as="geometry"/>
                </mxCell>
                <mxCell id="15" value="" style="shape=partialRectangle;html=1;whiteSpace=wrap;collapsible=0;dropTarget=0;pointerEvents=0;fillColor=none;top=0;left=0;bottom=0;right=0;points=[[0,0.5],[1,0.5]];portConstraint=eastwest;" parent="8" vertex="1">
                    <mxGeometry y="80" width="120" height="40" as="geometry"/>
                </mxCell>
                <mxCell id="16" value="da" style="shape=partialRectangle;html=1;whiteSpace=wrap;connectable=0;overflow=hidden;fillColor=none;top=0;left=0;bottom=0;right=0;" parent="15" vertex="1">
                    <mxGeometry width="60" height="40" as="geometry"/>
                </mxCell>
                <mxCell id="17" value="int" style="shape=partialRectangle;html=1;whiteSpace=wrap;connectable=0;overflow=hidden;fillColor=none;top=0;left=0;bottom=0;right=0;" parent="15" vertex="1">
                    <mxGeometry x="60" width="60" height="40" as="geometry"/>
                </mxCell>
                <mxCell id="18" value="" style="shape=partialRectangle;html=1;whiteSpace=wrap;collapsible=0;dropTarget=0;pointerEvents=0;fillColor=none;top=0;left=0;bottom=0;right=0;points=[[0,0.5],[1,0.5]];portConstraint=eastwest;" parent="8" vertex="1">
                    <mxGeometry y="120" width="120" height="40" as="geometry"/>
                </mxCell>
                <mxCell id="19" value="hra" style="shape=partialRectangle;html=1;whiteSpace=wrap;connectable=0;overflow=hidden;fillColor=none;top=0;left=0;bottom=0;right=0;" parent="18" vertex="1">
                    <mxGeometry width="60" height="40" as="geometry"/>
                </mxCell>
                <mxCell id="20" value="int" style="shape=partialRectangle;html=1;whiteSpace=wrap;connectable=0;overflow=hidden;fillColor=none;top=0;left=0;bottom=0;right=0;" parent="18" vertex="1">
                    <mxGeometry x="60" width="60" height="40" as="geometry"/>
                </mxCell>
                <mxCell id="21" value="" style="shape=partialRectangle;html=1;whiteSpace=wrap;collapsible=0;dropTarget=0;pointerEvents=0;fillColor=none;top=0;left=0;bottom=0;right=0;points=[[0,0.5],[1,0.5]];portConstraint=eastwest;" parent="8" vertex="1">
                    <mxGeometry y="160" width="120" height="40" as="geometry"/>
                </mxCell>
                <mxCell id="22" value="conti" style="shape=partialRectangle;html=1;whiteSpace=wrap;connectable=0;overflow=hidden;fillColor=none;top=0;left=0;bottom=0;right=0;" parent="21" vertex="1">
                    <mxGeometry width="60" height="40" as="geometry"/>
                </mxCell>
                <mxCell id="23" value="int" style="shape=partialRectangle;html=1;whiteSpace=wrap;connectable=0;overflow=hidden;fillColor=none;top=0;left=0;bottom=0;right=0;" parent="21" vertex="1">
                    <mxGeometry x="60" width="60" height="40" as="geometry"/>
                </mxCell>
                <mxCell id="24" value="" style="shape=partialRectangle;html=1;whiteSpace=wrap;collapsible=0;dropTarget=0;pointerEvents=0;fillColor=none;top=0;left=0;bottom=0;right=0;points=[[0,0.5],[1,0.5]];portConstraint=eastwest;" parent="8" vertex="1">
                    <mxGeometry y="200" width="120" height="40" as="geometry"/>
                </mxCell>
                <mxCell id="25" value="work_exp" style="shape=partialRectangle;html=1;whiteSpace=wrap;connectable=0;overflow=hidden;fillColor=none;top=0;left=0;bottom=0;right=0;" parent="24" vertex="1">
                    <mxGeometry width="60" height="40" as="geometry"/>
                </mxCell>
                <mxCell id="26" value="int" style="shape=partialRectangle;html=1;whiteSpace=wrap;connectable=0;overflow=hidden;fillColor=none;top=0;left=0;bottom=0;right=0;" parent="24" vertex="1">
                    <mxGeometry x="60" width="60" height="40" as="geometry"/>
                </mxCell>
                <mxCell id="27" value="" style="shape=partialRectangle;html=1;whiteSpace=wrap;collapsible=0;dropTarget=0;pointerEvents=0;fillColor=none;top=0;left=0;bottom=0;right=0;points=[[0,0.5],[1,0.5]];portConstraint=eastwest;" parent="8" vertex="1">
                    <mxGeometry y="240" width="120" height="40" as="geometry"/>
                </mxCell>
                <mxCell id="28" value="total" style="shape=partialRectangle;html=1;whiteSpace=wrap;connectable=0;overflow=hidden;fillColor=none;top=0;left=0;bottom=0;right=0;" parent="27" vertex="1">
                    <mxGeometry width="60" height="40" as="geometry"/>
                </mxCell>
                <mxCell id="29" value="int" style="shape=partialRectangle;html=1;whiteSpace=wrap;connectable=0;overflow=hidden;fillColor=none;top=0;left=0;bottom=0;right=0;" parent="27" vertex="1">
                    <mxGeometry x="60" width="60" height="40" as="geometry"/>
                </mxCell>
                <mxCell id="33" value="&lt;font style=&quot;font-size: 18px&quot;&gt;bill_format&lt;/font&gt;" style="text;html=1;align=center;verticalAlign=middle;resizable=0;points=[];autosize=1;strokeColor=none;" parent="1" vertex="1">
                    <mxGeometry x="460" y="110" width="100" height="20" as="geometry"/>
                </mxCell>
                <mxCell id="34" style="edgeStyle=orthogonalEdgeStyle;rounded=0;orthogonalLoop=1;jettySize=auto;html=1;entryX=1.014;entryY=0.708;entryDx=0;entryDy=0;entryPerimeter=0;" parent="1" source="zT0m9KXt71LDKq0_06r3-95" target="9" edge="1">
                    <mxGeometry relative="1" as="geometry"/>
                </mxCell>
            </root>
        </mxGraphModel>
    </diagram>
</mxfile>